<svg width="99" height="100" viewBox="0 0 99 100" fill="none" xmlns="http://www.w3.org/2000/svg">
    <g clip-path="url(#us223lynia)">
        <rect y=".71" width="99" height="99" rx="49.5" fill="url(#1e4l3f10ib)"/>
        <path d="M65.73 42.979C89.305 23.666 67.055 6 43.152 15.409c-2.557 1.006-9.643-3.023-16.207 1.222-4.234 2.738-2.586 4.885-4.235 7.03-1.649 2.147-8.005 2.02-9.397 7.593-.825 3.302 1.457 6.76 1.152 9.245-.305 2.485-2.715 4.725-2.83 8.006a10.554 10.554 0 0 0 10.173 10.928 10.617 10.617 0 0 0 10.219 10.566c1.82.063 6.426.064 10.385-2.324 9.92-5.982 7.694-11.897 23.318-24.696z" fill="#fff"/>
        <path d="M41.25 64.73c0-2.97-.1-17.62-.096-17.867-8.154 1.202-7.989-14.308.261-10.513 1.815 1.155 6.93 0 6.435-9.57 8.91 9.57 19.255-1.592 20.142 7.503 1.211 12.42-.008 25.417-7.726 25.418a14.463 14.463 0 0 1-2.516-.251v5.28c0 3.3 5.94 4.95 5.94 4.95s-10.26 9.669-14.52 9.615c-4.26-.053-13.86-9.615-13.86-9.615s5.94-1.65 5.94-4.95z" fill="url(#21aawb7ukc)"/>
        <path d="M57.75 59.448a32.486 32.486 0 0 1-11.424-4.983s2.847 6.961 11.413 8.282l.01-3.299z" fill="#DB6F3D"/>
        <path d="M79.86 79.58c2.394 5.32 3.63 21.45 3.63 21.45H15.51s1.236-16.13 3.63-21.45c2.098-4.66 15.919-10.012 19.97-11.55 2.338 2.616 5.69 4.29 10.39 4.29s8.052-1.674 10.39-4.29c4.051 1.538 17.873 6.89 19.97 11.55z" fill="url(#vh6gyx4p6d)"/>
        <mask id="l7t4hszhhf" style="mask-type:alpha" maskUnits="userSpaceOnUse" x="15" y="68" width="69" height="34">
            <path d="M79.86 79.58c2.394 5.32 3.63 21.45 3.63 21.45H15.51s1.236-16.13 3.63-21.45c2.098-4.66 15.919-10.012 19.97-11.55 2.338 2.616 5.69 4.29 10.39 4.29s8.052-1.674 10.39-4.29c4.051 1.538 17.873 6.89 19.97 11.55z" fill="url(#cmfcr63tce)"/>
        </mask>
        <g mask="url(#l7t4hszhhf)">
            <path d="M80.52 97.73a1.98 1.98 0 1 1 3.96 0 1.98 1.98 0 0 1-3.96 0zm-13.2 0a1.98 1.98 0 1 1 3.96 0 1.98 1.98 0 0 1-3.96 0zm-13.2 0a1.98 1.98 0 1 1 3.96 0 1.98 1.98 0 0 1-3.96 0zm-13.2 0a1.98 1.98 0 1 1 3.96 0 1.98 1.98 0 0 1-3.96 0zm-13.2 0a1.98 1.98 0 1 1 3.96 0 1.98 1.98 0 0 1-3.96 0zm-13.2 0a1.98 1.98 0 1 1 3.96 0 1.98 1.98 0 0 1-3.96 0zm59.4-6.6a1.98 1.98 0 1 1 3.96 0 1.98 1.98 0 0 1-3.96 0zm-13.2 0a1.98 1.98 0 1 1 3.96 0 1.98 1.98 0 0 1-3.96 0zm-13.2 0a1.98 1.98 0 1 1 3.96 0 1.98 1.98 0 0 1-3.96 0zm-13.2 0a1.98 1.98 0 1 1 3.96 0 1.98 1.98 0 0 1-3.96 0zm-13.2 0a1.98 1.98 0 1 1 3.96 0 1.98 1.98 0 0 1-3.96 0zm59.4-6.6a1.98 1.98 0 1 1 3.96 0 1.98 1.98 0 0 1-3.96 0zm-13.2 0a1.98 1.98 0 1 1 3.96 0 1.98 1.98 0 0 1-3.96 0zm-13.2 0a1.98 1.98 0 1 1 3.96 0 1.98 1.98 0 0 1-3.96 0zm-13.2 0a1.98 1.98 0 1 1 3.96 0 1.98 1.98 0 0 1-3.96 0zm-13.2 0a1.98 1.98 0 1 1 3.96 0 1.98 1.98 0 0 1-3.96 0zm-13.2 0a1.98 1.98 0 1 1 3.96 0 1.98 1.98 0 0 1-3.96 0zm59.4-6.6a1.98 1.98 0 1 1 3.96 0 1.98 1.98 0 0 1-3.96 0zm-13.2 0a1.98 1.98 0 1 1 3.96 0 1.98 1.98 0 0 1-3.96 0zm-13.2 0a1.98 1.98 0 1 1 3.96 0 1.98 1.98 0 0 1-3.96 0zm-13.2 0a1.98 1.98 0 1 1 3.96 0 1.98 1.98 0 0 1-3.96 0zm-13.2 0a1.98 1.98 0 1 1 3.96 0 1.98 1.98 0 0 1-3.96 0zm59.4-6.6a1.98 1.98 0 1 1 3.96 0 1.98 1.98 0 0 1-3.96 0zm-13.2 0a1.98 1.98 0 1 1 3.96 0 1.98 1.98 0 0 1-3.96 0zm-39.6 0a1.98 1.98 0 1 1 3.96 0 1.98 1.98 0 0 1-3.96 0zm-13.2 0a1.98 1.98 0 1 1 3.96 0 1.98 1.98 0 0 1-3.96 0z" fill="#FFA789"/>
        </g>
    </g>
    <defs>
        <linearGradient id="1e4l3f10ib" x1="49.5" y1=".71" x2="49.5" y2="99.71" gradientUnits="userSpaceOnUse">
            <stop stop-color="#1D0024"/>
            <stop offset="1" stop-color="#100014"/>
        </linearGradient>
        <linearGradient id="21aawb7ukc" x1="51.764" y1="26.78" x2="51.764" y2="79.296" gradientUnits="userSpaceOnUse">
            <stop stop-color="#E6864E"/>
            <stop offset="1" stop-color="#EB965E"/>
        </linearGradient>
        <linearGradient id="vh6gyx4p6d" x1="49.5" y1="68.03" x2="49.5" y2="101.03" gradientUnits="userSpaceOnUse">
            <stop stop-color="#FECBB5"/>
            <stop offset="1" stop-color="#FED4C4"/>
        </linearGradient>
        <linearGradient id="cmfcr63tce" x1="49.5" y1="68.03" x2="49.5" y2="101.03" gradientUnits="userSpaceOnUse">
            <stop stop-color="#FECBB5"/>
            <stop offset="1" stop-color="#FED4C4"/>
        </linearGradient>
        <clipPath id="us223lynia">
            <rect y=".71" width="99" height="99" rx="49.5" fill="#fff"/>
        </clipPath>
    </defs>
</svg>
